<svg id="Layer_5" enable-background="new 0 0 64 64" height="100%" viewBox="0 0 64 64" width="100%" xmlns="http://www.w3.org/2000/svg"><g><path d="m57.874 35.514-.487-.877-.875.49c-.008.005-.145.082-.371.213-1.689-7.229-5.272-10.887-5.433-11.047l-.559-.559-.47.289-.127-.95c-.39-2.928-1.755-5.691-3.845-7.781l-.707-.706-.707.707c-2.089 2.089-3.455 4.853-3.845 7.78l-.127.95-.47-.289-.559.559c-.114.114-1.937 1.982-3.593 5.613-1.48-4.205-3.71-8.243-3.825-8.45l-.487-.877-.875.49c-.008.005-.145.082-.371.213-1.689-7.229-5.272-10.887-5.433-11.047l-.559-.559-.47.289-.127-.95c-.391-2.929-1.756-5.692-3.845-7.78l-.707-.707-.707.707c-2.089 2.089-3.455 4.852-3.845 7.78l-.127.95-.47-.289-.559.559c-.161.161-3.745 3.817-5.433 11.046-.191-.11-.322-.184-.371-.211l-.875-.49-.487.877c-.209.376-5.126 9.286-5.126 14.485 0 5.931 3.123 13 18 13 3.13 0 5.872-.314 8.194-.924-.121.698-.194 1.367-.194 1.982 0 5.931 3.123 13 18 13s18-7.069 18-13c0-5.199-4.917-14.109-5.126-14.486zm-3.554.915c-.592.363-1.286.798-2.053 1.292-1.49-3.527-3.71-6.441-5.832-8.648 1.405-1.298 2.651-2.233 3.387-2.75 1.046 1.309 3.358 4.713 4.498 10.106zm-9.32-18.946c1.381 1.663 2.283 3.707 2.569 5.855l.262 1.96c-.769.579-1.753 1.381-2.824 2.377-1.074-.997-2.064-1.802-2.837-2.382l.261-1.956c.286-2.147 1.188-4.191 2.569-5.854zm-4.823 8.841c1.995 1.406 7.716 5.883 10.39 12.514-1.696 1.136-3.609 2.483-5.556 3.988-3.647-2.821-7.154-5.076-9.329-6.404 1.141-5.388 3.45-8.79 4.495-10.098zm-9.572-2.996c.938 1.804 3.001 5.993 3.93 9.588-.246.759-.475 1.562-.676 2.422-.189-.109-.318-.181-.371-.211l-.875-.49-.487.877c-.015.028-.062.113-.124.227-1.591-2.041-3.546-4.136-5.873-6.249l-1.345 1.48c2.503 2.273 4.569 4.517 6.207 6.727-.299.602-.63 1.292-.978 2.057-2.367-3.483-5.854-6.828-9.388-9.704 4.228-3.228 8.253-5.702 9.98-6.724zm-2.285-.956c-.591.363-1.287.799-2.053 1.293-1.49-3.527-3.71-6.441-5.832-8.648 1.406-1.299 2.653-2.235 3.39-2.752 1.045 1.299 3.351 4.685 4.495 10.107zm-9.32-18.947c1.381 1.663 2.283 3.707 2.569 5.855l.261 1.96c-.769.579-1.752 1.381-2.824 2.377-1.074-.997-2.064-1.802-2.837-2.382l.261-1.955c.287-2.148 1.189-4.192 2.57-5.855zm-4.823 8.842c1.995 1.406 7.716 5.884 10.39 12.515-1.695 1.136-3.609 2.487-5.556 3.991-3.648-2.822-7.156-5.08-9.329-6.407 1.141-5.389 3.45-8.791 4.495-10.099zm4.823 34.675c-10.766 0-16-3.598-16-11 0-3.792 3.166-10.25 4.395-12.614 3.528 2.091 16.644 10.244 21.662 18.646-.5 1.233-.969 2.533-1.335 3.805-2.343.769-5.268 1.163-8.722 1.163zm26 14.058c-10.767 0-16-3.598-16-11 0-3.792 3.166-10.25 4.395-12.614 3.908 2.316 19.577 12.064 22.968 21.316-2.64 1.539-6.418 2.298-11.363 2.298zm13.036-3.511c-1.96-4.774-6.648-9.507-11.409-13.382 4.227-3.229 8.251-5.7 9.979-6.722 1.228 2.364 4.394 8.819 4.394 12.615 0 3.203-.98 5.694-2.964 7.489z"/><path d="m42.872 58.947c.669.035 1.377.053 2.128.053v-2c-.714 0-1.388-.017-2.024-.05z"/><path d="m33 50h-2c0 2.089 0 7.64 9.883 8.783l.229-1.986c-8.112-.94-8.112-4.75-8.112-6.797z"/><path d="m52.128 43.549-1.345 1.48c2.596 2.357 4.734 4.685 6.354 6.918l1.619-1.175c-1.7-2.343-3.93-4.773-6.628-7.223z"/><path d="m7 35.942h-2c0 2.089 0 7.64 9.883 8.783l.229-1.986c-8.112-.939-8.112-4.749-8.112-6.797z"/><path d="m16.872 44.889c.669.035 1.377.053 2.128.053v-2c-.714 0-1.388-.017-2.024-.05z"/></g></svg>